<svg width="115" height="115" viewBox="0 0 115 115" fill="none" xmlns="http://www.w3.org/2000/svg">
<circle cx="57.5" cy="57.5" r="57" fill="#009688" stroke="white"/>
<path d="M79.9001 89.2024L81.3708 88.2219C81.3708 88.7853 81.147 89.3257 80.7486 89.7241C80.3502 90.1225 79.8099 90.3463 79.2464 90.3463H36.105C35.5416 90.3463 35.0012 90.1225 34.6028 89.7241C34.2044 89.3257 33.9806 88.7853 33.9806 88.2219V27.4316C33.9806 26.8682 34.2044 26.3279 34.6028 25.9295C35.0012 25.5311 35.5416 25.3073 36.105 25.3073H35.1245L38.8013 83.4011C38.8013 83.9646 39.0251 84.5049 39.4235 84.9033C39.8219 85.3017 40.3623 85.5255 40.9257 85.5255L79.9001 89.2024Z" fill="white"/>
<path d="M43.8311 35.8345H57.6755V38.1272H43.8311V35.8345Z" fill="white"/>
<path d="M43.8311 48.0023H57.6772V50.295H43.8311V48.0023Z" fill="white"/>
<path d="M43.8311 41.7092H66.0669V44.0019H43.8311V41.7092Z" fill="white"/>
<path d="M43.8311 62.7979H57.6755V65.0906H43.8311V62.7979Z" fill="white"/>
<path d="M43.8311 74.9658H57.6772V77.2585H43.8311V74.9658Z" fill="white"/>
<path d="M43.8311 68.6727H66.0669V70.9654H43.8311V68.6727Z" fill="white"/>
<path d="M79.2463 91H36.1049C35.2814 91 34.4917 90.6729 33.9094 90.0906C33.3271 89.5083 33 88.7186 33 87.8951V27.1049C33 26.2814 33.3271 25.4917 33.9094 24.9094C34.4917 24.3271 35.2814 24 36.1049 24H79.2463C80.0698 24 80.8595 24.3271 81.4418 24.9094C82.0241 25.4917 82.3512 26.2814 82.3512 27.1049V87.8951C82.3512 88.7186 82.0241 89.5083 81.4418 90.0906C80.8595 90.6729 80.0698 91 79.2463 91ZM36.1049 25.961C35.8015 25.961 35.5105 26.0815 35.296 26.296C35.0815 26.5105 34.961 26.8015 34.961 27.1049V87.8951C34.961 88.1985 35.0815 88.4895 35.296 88.704C35.5105 88.9185 35.8015 89.039 36.1049 89.039H79.2463C79.5497 89.039 79.8407 88.9185 80.0552 88.704C80.2697 88.4895 80.3902 88.1985 80.3902 87.8951V27.1049C80.3902 26.8015 80.2697 26.5105 80.0552 26.296C79.8407 26.0815 79.5497 25.961 79.2463 25.961H36.1049Z" fill="white"/>
<path d="M81.289 71.0634C86.5687 71.0634 90.8488 66.7834 90.8488 61.5037C90.8488 56.224 86.5687 51.9439 81.289 51.9439C76.0093 51.9439 71.7292 56.224 71.7292 61.5037C71.7292 66.7834 76.0093 71.0634 81.289 71.0634Z" fill="#009688"/>
<path d="M89.705 61.0134C89.7045 62.3583 89.4204 63.6879 88.8711 64.9156C88.3219 66.1432 87.5198 67.2412 86.5174 68.1378C85.515 69.0344 84.3347 69.7095 83.0537 70.119C81.7727 70.5285 80.4196 70.6632 79.083 70.5143C81.4206 70.2537 83.5801 69.1406 85.1484 67.3877C86.7167 65.6349 87.5838 63.3654 87.5838 61.0134C87.5838 58.6613 86.7167 56.3918 85.1484 54.639C83.5801 52.8861 81.4206 51.773 79.083 51.5124C80.4196 51.3635 81.7727 51.4982 83.0537 51.9077C84.3347 52.3172 85.515 52.9923 86.5174 53.8889C87.5198 54.7855 88.3219 55.8835 88.8711 57.1111C89.4204 58.3388 89.7045 59.6684 89.705 61.0134Z" fill="#009688"/>
<path d="M83.0048 70.4947C81.6557 70.6722 80.2843 70.5597 78.9822 70.1647C77.68 69.7696 76.4773 69.1011 75.4542 68.2039C74.4312 67.3067 73.6115 66.2014 73.0499 64.9619C72.4884 63.7225 72.1979 62.3774 72.1979 61.0167C72.1979 59.6559 72.4884 58.3109 73.0499 57.0714C73.6115 55.832 74.4312 54.7267 75.4542 53.8295C76.4773 52.9322 77.68 52.2637 78.9822 51.8687C80.2843 51.4736 81.6557 51.3611 83.0048 51.5386C80.7053 51.8412 78.5942 52.9695 77.0648 54.7133C75.5355 56.457 74.6923 58.6973 74.6923 61.0167C74.6923 63.336 75.5355 65.5763 77.0648 67.3201C78.5942 69.0638 80.7053 70.1921 83.0048 70.4947Z" fill="#389D9C"/>
<path d="M81.289 71.5536C79.2044 71.5536 77.1665 70.9355 75.4332 69.7773C73.6998 68.6191 72.3489 66.9729 71.5511 65.047C70.7533 63.121 70.5446 61.0017 70.9513 58.9571C71.358 56.9125 72.3619 55.0344 73.836 53.5603C75.31 52.0862 77.1881 51.0824 79.2327 50.6757C81.2773 50.269 83.3966 50.4777 85.3226 51.2755C87.2486 52.0732 88.8947 53.4242 90.0529 55.1575C91.2111 56.8909 91.8293 58.9287 91.8293 61.0134C91.8262 63.8079 90.7148 66.4871 88.7388 68.4631C86.7627 70.4391 84.0835 71.5506 81.289 71.5536ZM81.289 52.4341C79.5922 52.4341 77.9335 52.9373 76.5226 53.88C75.1118 54.8227 74.0122 56.1626 73.3628 57.7302C72.7135 59.2979 72.5436 61.0229 72.8746 62.6871C73.2056 64.3513 74.0227 65.88 75.2226 67.0799C76.4224 68.2797 77.9511 69.0968 79.6153 69.4278C81.2795 69.7588 83.0045 69.5889 84.5722 68.9396C86.1398 68.2903 87.4797 67.1906 88.4224 65.7798C89.3651 64.3689 89.8683 62.7102 89.8683 61.0134C89.8657 58.7388 88.961 56.5582 87.3526 54.9498C85.7443 53.3414 83.5636 52.4367 81.289 52.4341Z" fill="white"/>
<path d="M79.5127 58.4804V64.6494C79.5127 66.2263 81.9639 66.2296 81.9639 64.6494V58.4804C81.9639 56.9035 79.5127 56.9002 79.5127 58.4804Z" fill="white"/>
<path d="M83.822 60.3401H77.6531C76.0761 60.3401 76.0728 62.7913 77.6531 62.7913H83.822C85.3989 62.7913 85.4022 60.3401 83.822 60.3401Z" fill="white"/>
</svg>
