<svg width="81" height="83" viewBox="0 0 81 83" fill="none" xmlns="http://www.w3.org/2000/svg">
<path d="M64.7204 80.4799L66.7274 79.2799C66.7274 79.9695 66.422 80.6308 65.8783 81.1184C65.3346 81.606 64.5972 81.8799 63.8283 81.8799H4.95399C4.18509 81.8799 3.44769 81.606 2.904 81.1184C2.36031 80.6308 2.05487 79.9695 2.05487 79.2799V4.87991C2.05487 4.19034 2.36031 3.52902 2.904 3.04143C3.44769 2.55383 4.18509 2.27991 4.95399 2.27991H3.61593L8.63363 73.3799C8.63363 74.0695 8.93907 74.7308 9.48276 75.2184C10.0265 75.706 10.7639 75.9799 11.5327 75.9799L64.7204 80.4799Z" fill="white"/>
<path d="M15.4978 15.1641H34.3911V17.9701H15.4978V15.1641Z" fill="white"/>
<path d="M15.4978 30.0559H34.3933V32.8619H15.4978V30.0559Z" fill="white"/>
<path d="M15.4978 22.354H45.8426V25.16H15.4978V22.354Z" fill="white"/>
<path d="M15.4978 48.1641H34.3911V50.9701H15.4978V48.1641Z" fill="white"/>
<path d="M15.4978 63.056H34.3933V65.862H15.4978V63.056Z" fill="white"/>
<path d="M15.4978 55.354H45.8426V58.16H15.4978V55.354Z" fill="white"/>
<path d="M63.8283 82.6801H4.95396C3.8302 82.6801 2.75246 82.2797 1.95783 81.5671C1.16321 80.8544 0.716797 79.8879 0.716797 78.8801L0.716797 4.48005C0.716797 3.47223 1.16321 2.50569 1.95783 1.79305C2.75246 1.08041 3.8302 0.680054 4.95396 0.680054L63.8283 0.680054C64.9521 0.680054 66.0298 1.08041 66.8244 1.79305C67.619 2.50569 68.0655 3.47223 68.0655 4.48005V78.8801C68.0655 79.8879 67.619 80.8544 66.8244 81.5671C66.0298 82.2797 64.9521 82.6801 63.8283 82.6801ZM4.95396 3.08005C4.53995 3.08005 4.14288 3.22755 3.85013 3.4901C3.55737 3.75266 3.3929 4.10875 3.3929 4.48005V78.8801C3.3929 79.2514 3.55737 79.6075 3.85013 79.87C4.14288 80.1326 4.53995 80.2801 4.95396 80.2801H63.8283C64.2423 80.2801 64.6394 80.1326 64.9321 79.87C65.2249 79.6075 65.3894 79.2514 65.3894 78.8801V4.48005C65.3894 4.10875 65.2249 3.75266 64.9321 3.4901C64.6394 3.22755 64.2423 3.08005 63.8283 3.08005H4.95396Z" fill="white"/>
<path d="M66.616 58.2801C73.8211 58.2801 79.662 53.0419 79.662 46.5801C79.662 40.1184 73.8211 34.8801 66.616 34.8801C59.4108 34.8801 53.5699 40.1184 53.5699 46.5801C53.5699 53.0419 59.4108 58.2801 66.616 58.2801Z" fill="#009688"/>
<path d="M78.1009 45.98C78.1003 47.626 77.7125 49.2534 76.963 50.7559C76.2134 52.2583 75.1189 53.6021 73.7509 54.6995C72.383 55.7968 70.7723 56.6231 69.0241 57.1243C67.2759 57.6254 65.4294 57.7903 63.6053 57.608C66.7954 57.2891 69.7424 55.9268 71.8827 53.7815C74.023 51.6362 75.2063 48.8586 75.2063 45.98C75.2063 43.1014 74.023 40.3238 71.8827 38.1785C69.7424 36.0332 66.7954 34.6709 63.6053 34.352C65.4294 34.1697 67.2759 34.3346 69.0241 34.8358C70.7723 35.3369 72.383 36.1632 73.7509 37.2605C75.1189 38.3579 76.2134 39.7017 76.963 41.2042C77.7125 42.7066 78.1003 44.334 78.1009 45.98Z" fill="#009688"/>
<path d="M68.9574 57.5839C67.1163 57.8012 65.2447 57.6635 63.4677 57.18C61.6907 56.6965 60.0493 55.8783 58.6532 54.7802C57.2571 53.6821 56.1385 52.3294 55.3721 50.8124C54.6058 49.2955 54.2094 47.6493 54.2094 45.9839C54.2094 44.3186 54.6058 42.6724 55.3721 41.1554C56.1385 39.6385 57.2571 38.2857 58.6532 37.1877C60.0493 36.0896 61.6907 35.2714 63.4677 34.7879C65.2447 34.3044 67.1163 34.1667 68.9574 34.3839C65.8193 34.7543 62.9382 36.1352 60.8512 38.2693C58.7642 40.4035 57.6134 43.1453 57.6134 45.9839C57.6134 48.8226 58.7642 51.5644 60.8512 53.6986C62.9382 55.8327 65.8193 57.2136 68.9574 57.5839Z" fill="#009688"/>
<path d="M66.616 58.88C63.7711 58.88 60.9901 58.1234 58.6246 56.7059C56.2592 55.2884 54.4156 53.2737 53.3269 50.9166C52.2382 48.5594 51.9533 45.9656 52.5083 43.4633C53.0633 40.9609 54.4333 38.6624 56.4449 36.8583C58.4566 35.0542 61.0196 33.8256 63.8098 33.3278C66.6001 32.8301 69.4922 33.0855 72.1206 34.0619C74.7489 35.0383 76.9954 36.6917 78.5759 38.8131C80.1565 40.9345 81.0001 43.4286 81.0001 45.98C80.9959 49.4001 79.4792 52.6791 76.7825 55.0975C74.0859 57.516 70.4296 58.8763 66.616 58.88ZM66.616 35.48C64.3004 35.48 62.0368 36.0958 60.1114 37.2495C58.186 38.4033 56.6854 40.0432 55.7993 41.9618C54.9131 43.8804 54.6813 45.9916 55.133 48.0284C55.5848 50.0652 56.6998 51.9361 58.3372 53.4046C59.9746 54.873 62.0608 55.8731 64.3319 56.2782C66.603 56.6834 68.9571 56.4754 71.0965 55.6807C73.2358 54.886 75.0643 53.5402 76.3508 51.8134C77.6373 50.0867 78.324 48.0567 78.324 45.98C78.3204 43.1962 77.0858 40.5273 74.8909 38.5588C72.696 36.5904 69.7201 35.4831 66.616 35.48Z" fill="white"/>
<path d="M64.1919 42.88V50.43C64.1919 52.36 67.537 52.364 67.537 50.43V42.88C67.537 40.95 64.1919 40.946 64.1919 42.88Z" fill="white"/>
<path d="M70.0726 45.156H61.654C59.502 45.156 59.4975 48.156 61.654 48.156H70.0726C72.2246 48.156 72.2291 45.156 70.0726 45.156Z" fill="white"/>
</svg>
