<svg width="817" height="622" viewBox="0 0 817 622" fill="none" xmlns="http://www.w3.org/2000/svg">
<g clip-path="url(#clip0_173_3)">
<path d="M326.608 129.281H323.631V47.7108C323.631 41.511 322.41 35.3719 320.037 29.644C317.665 23.9161 314.187 18.7117 309.803 14.3277C305.419 9.9438 300.215 6.46628 294.487 4.09372C288.759 1.72115 282.62 0.500005 276.42 0.5H103.602C91.0812 0.499976 79.073 5.47392 70.2192 14.3276C61.3655 23.1813 56.3915 35.1895 56.3915 47.7106V495.212C56.3915 501.412 57.6126 507.551 59.9852 513.279C62.3577 519.007 65.8352 524.211 70.2191 528.595C74.6031 532.979 79.8075 536.457 85.5354 538.829C91.2633 541.202 97.4023 542.423 103.602 542.423H276.42C288.941 542.423 300.949 537.449 309.803 528.595C318.657 519.742 323.631 507.733 323.631 495.212V187.344H326.608V129.281Z" fill="#25252F"/>
<path d="M278.325 12.7826H255.767C256.804 15.326 257.2 18.0855 256.92 20.8179C256.639 23.5504 255.691 26.172 254.159 28.4518C252.627 30.7317 250.558 32.5997 248.134 33.8914C245.71 35.1831 243.005 35.8588 240.258 35.859H141.253C138.506 35.8588 135.802 35.1831 133.377 33.8914C130.953 32.5997 128.884 30.7317 127.352 28.4519C125.82 26.172 124.872 23.5504 124.591 20.8179C124.311 18.0855 124.707 15.326 125.745 12.7826H104.675C100.045 12.7826 95.4604 13.6945 91.1829 15.4663C86.9054 17.2381 83.0187 19.8351 79.7448 23.1089C76.471 26.3828 73.874 30.2694 72.1022 34.547C70.3304 38.8245 69.4185 43.4091 69.4185 48.039V494.884C69.4185 499.514 70.3304 504.098 72.1022 508.376C73.874 512.653 76.471 516.54 79.7448 519.814C83.0187 523.088 86.9053 525.685 91.1828 527.457C95.4603 529.228 100.045 530.14 104.675 530.14H278.325C282.955 530.14 287.54 529.228 291.817 527.457C296.095 525.685 299.981 523.088 303.255 519.814C306.529 516.54 309.126 512.653 310.898 508.376C312.67 504.098 313.582 499.514 313.582 494.884V48.039C313.582 43.4091 312.67 38.8245 310.898 34.547C309.126 30.2694 306.529 26.3828 303.255 23.1089C299.981 19.8351 296.095 17.2381 291.817 15.4663C287.54 13.6945 282.955 12.7826 278.325 12.7826Z" fill="white"/>
<path d="M382 542.5H1C0.734784 542.5 0.480429 542.395 0.292892 542.207C0.105356 542.02 0 541.765 0 541.5C0 541.235 0.105356 540.98 0.292892 540.793C0.480429 540.605 0.734784 540.5 1 540.5H382C382.265 540.5 382.52 540.605 382.707 540.793C382.895 540.98 383 541.235 383 541.5C383 541.765 382.895 542.02 382.707 542.207C382.52 542.395 382.265 542.5 382 542.5Z" fill="#337F89"/>
<path d="M191.5 346.18C238.138 346.18 275.946 308.372 275.946 261.734C275.946 215.095 238.138 177.287 191.5 177.287C144.862 177.287 107.054 215.095 107.054 261.734C107.054 308.372 144.862 346.18 191.5 346.18Z" fill="#009688"/>
<path d="M183.132 293.947C181.232 293.951 179.383 293.336 177.863 292.196L177.768 292.126L157.922 276.944C157.003 276.239 156.232 275.36 155.652 274.358C155.073 273.355 154.697 272.248 154.545 271.1C154.393 269.951 154.469 268.785 154.769 267.666C155.068 266.547 155.585 265.498 156.289 264.579C156.994 263.66 157.873 262.888 158.875 262.309C159.878 261.729 160.985 261.353 162.133 261.201C163.282 261.05 164.449 261.126 165.567 261.425C166.686 261.724 167.735 262.241 168.654 262.946L181.509 272.803L211.885 233.174C212.589 232.255 213.468 231.484 214.47 230.905C215.473 230.326 216.579 229.949 217.727 229.798C218.875 229.646 220.041 229.722 221.159 230.021C222.278 230.321 223.326 230.837 224.245 231.541L224.248 231.543L224.059 231.805L224.253 231.543C226.106 232.968 227.319 235.07 227.625 237.387C227.931 239.705 227.304 242.049 225.883 243.906L190.154 290.498C189.328 291.571 188.265 292.44 187.049 293.036C185.832 293.633 184.494 293.941 183.14 293.937L183.132 293.947Z" fill="white"/>
<path d="M694.245 550.8C695.272 549.139 696.482 547.598 697.851 546.205C698.415 545.619 699.011 545.068 699.625 544.531C703.359 541.208 707.91 538.939 712.811 537.958C717.713 536.976 722.787 537.319 727.512 538.949C732.238 540.579 736.444 543.438 739.698 547.232C742.952 551.027 745.136 555.619 746.027 560.538C750.151 545.286 739.415 530.262 728.621 518.723C717.821 507.187 705.478 494.531 705.54 478.724C705.57 469.929 709.873 462.082 716.369 456.264C716.569 456.088 716.77 455.912 716.974 455.742C724.826 449.011 734.928 445.491 745.262 445.884C764.461 446.912 781.225 459.815 792.867 475.121C811.606 499.748 819.817 534.318 806.698 562.352C795.159 587.009 770.55 601.65 745.433 613.421C741.926 615.065 738.426 616.66 734.933 618.204C734.91 618.21 734.884 618.227 734.861 618.233C734.693 618.307 734.525 618.381 734.367 618.457C733.646 618.775 732.925 619.093 732.21 619.407L732.541 619.624L733.574 620.292C733.216 620.076 732.862 619.865 732.504 619.648C732.397 619.583 732.285 619.521 732.179 619.455C719.843 612.053 707.335 604.223 698.813 592.667C689.975 580.67 686.421 563.484 694.245 550.8Z" fill="#009688"/>
<path d="M776.548 522.936C779.279 529.15 781.09 535.73 781.923 542.466C782.579 548.473 782.332 554.545 781.192 560.479C778.743 572.673 773.4 584.101 765.615 593.801C759.741 601.165 752.96 607.758 745.433 613.421C741.926 615.065 738.426 616.66 734.933 618.204C734.91 618.21 734.884 618.227 734.861 618.233C734.693 618.307 734.525 618.381 734.367 618.457C733.646 618.775 732.925 619.093 732.211 619.407L732.542 619.624L733.574 620.293C733.216 620.076 732.862 619.865 732.504 619.648C732.398 619.583 732.285 619.521 732.179 619.455C734.893 609.959 735.293 599.951 733.343 590.269C731.393 580.587 727.15 571.513 720.971 563.809C714.759 556.201 706.837 550.169 697.851 546.205C698.415 545.619 699.011 545.068 699.625 544.531C703.086 546.12 706.4 548.013 709.528 550.186C720.716 557.918 729.116 569.047 733.487 581.926C737.389 593.609 737.876 606.163 734.892 618.114C735.511 617.709 736.132 617.294 736.737 616.881C748.229 609.131 758.82 599.823 766.798 588.41C773.678 578.764 778.081 567.574 779.619 555.825C781.148 542.991 777.937 530.371 772.207 518.92C765.88 506.669 757.908 495.341 748.511 485.25C739.073 474.88 728.402 465.705 716.735 457.928C716.472 457.75 716.288 457.479 716.219 457.169C716.151 456.859 716.205 456.535 716.369 456.264C716.494 456.017 716.711 455.829 716.974 455.742C717.108 455.708 717.247 455.704 717.382 455.732C717.517 455.759 717.644 455.816 717.754 455.9C719.194 456.861 720.622 457.83 722.033 458.829C733.782 467.148 744.452 476.895 753.798 487.845C762.829 498.4 771.048 510.126 776.548 522.936Z" fill="white"/>
<path d="M525.042 39.7105C534.946 39.7105 542.976 31.6812 542.976 21.7765C542.976 11.8718 534.946 3.84241 525.042 3.84241C515.137 3.84241 507.108 11.8718 507.108 21.7765C507.108 31.6812 515.137 39.7105 525.042 39.7105Z" fill="#009688"/>
<path d="M748.042 279.711C754.08 279.711 758.976 274.815 758.976 268.776C758.976 262.738 754.08 257.842 748.042 257.842C742.003 257.842 737.108 262.738 737.108 268.776C737.108 274.815 742.003 279.711 748.042 279.711Z" fill="#009688"/>
<path d="M428.042 309.711C434.08 309.711 438.976 304.815 438.976 298.776C438.976 292.738 434.08 287.842 428.042 287.842C422.003 287.842 417.108 292.738 417.108 298.776C417.108 304.815 422.003 309.711 428.042 309.711Z" fill="#009688"/>
<path d="M434.215 621.5H815.215C815.481 621.5 815.735 621.395 815.922 621.207C816.11 621.02 816.215 620.765 816.215 620.5C816.215 620.235 816.11 619.98 815.922 619.793C815.735 619.605 815.481 619.5 815.215 619.5H434.215C433.95 619.5 433.696 619.605 433.508 619.793C433.321 619.98 433.215 620.235 433.215 620.5C433.215 620.765 433.321 621.02 433.508 621.207C433.696 621.395 433.95 621.5 434.215 621.5Z" fill="#337F89"/>
<path d="M773.17 97.135C773.67 93.5831 772.85 89.9711 770.865 86.9834C768.88 83.9957 765.868 81.8399 762.4 80.9245C758.932 80.0091 755.248 80.3977 752.047 82.0167C748.847 83.6357 746.351 86.3726 745.033 89.7088L714.116 125.153L723.188 150.49L754.281 109.075C756.309 109.725 758.456 109.922 760.57 109.652C762.683 109.383 764.712 108.653 766.513 107.515C768.313 106.376 769.843 104.857 770.993 103.064C772.143 101.27 772.886 99.2465 773.17 97.135Z" fill="#FFB7B7"/>
<path d="M645.013 235.049L747.642 125.52L733.799 103.512L605.076 212.376L645.013 235.049Z" fill="#25252F"/>
<path d="M622.108 168.5C641.99 168.5 658.108 152.382 658.108 132.5C658.108 112.618 641.99 96.5 622.108 96.5C602.225 96.5 586.108 112.618 586.108 132.5C586.108 152.382 602.225 168.5 622.108 168.5Z" fill="#25252F"/>
<path d="M625.001 112.163C632.748 104.308 642.122 98.2456 652.465 94.404C659.103 91.9446 666.329 90.425 673.27 91.8218C680.21 93.2184 686.774 98.0198 688.71 104.83C690.293 110.398 688.658 116.393 686.201 121.635C683.744 126.877 680.464 131.738 678.477 137.175C676.449 142.723 675.839 148.689 676.703 154.533C677.566 160.376 679.875 165.912 683.42 170.636C686.966 175.361 691.635 179.125 697.004 181.588C702.373 184.05 708.272 185.133 714.166 184.737C707.346 185.652 701.06 188.856 694.395 190.562C687.729 192.268 679.862 192.152 674.909 187.377C669.668 182.324 669.563 174.11 669.816 166.834C670.193 156.019 670.57 145.204 670.946 134.389C671.138 128.874 671.302 123.182 669.313 118.034C667.324 112.886 662.597 108.378 657.079 108.425C652.896 108.46 649.194 110.994 645.84 113.493C642.486 115.992 638.936 118.658 634.769 119.029C630.603 119.401 625.846 116.318 626.158 112.147L625.001 112.163Z" fill="#25252F"/>
<path d="M485.377 374.223C481.921 375.183 478.233 374.842 475.011 373.264C471.79 371.687 469.259 368.983 467.898 365.664C466.538 362.345 466.442 358.642 467.629 355.257C468.815 351.872 471.203 349.04 474.338 347.298L505.439 312.014L531.743 317.697L494.746 353.936C495.656 355.862 496.132 357.965 496.141 360.095C496.15 362.226 495.691 364.332 494.798 366.267C493.905 368.201 492.598 369.916 490.971 371.29C489.343 372.665 487.434 373.666 485.377 374.223Z" fill="#FFB7B7"/>
<path d="M587.698 247.905L510.183 345.205L486.555 334.357L577.665 192.512L587.698 247.905Z" fill="#25252F"/>
<path d="M525.848 541.711L507.374 541.421L509.596 604.387H525.845L525.848 541.711Z" fill="#FFB7B7"/>
<path d="M529.99 599.082L497.989 599.081H497.988C492.579 599.081 487.392 601.23 483.568 605.054C479.743 608.878 477.594 614.065 477.594 619.474V620.137L529.989 620.139L529.99 599.082Z" fill="#25252F"/>
<path d="M648.165 525.011L627.984 537.967L668.352 586.532L682.026 577.753L648.165 525.011Z" fill="#FFB7B7"/>
<path d="M682.648 571.049L655.718 588.338L655.717 588.338C651.166 591.261 647.962 595.871 646.81 601.156C645.658 606.44 646.653 611.966 649.575 616.517L649.933 617.075L694.023 588.768L682.648 571.049Z" fill="#25252F"/>
<path d="M655.355 332.74C655.355 332.74 610.515 183.813 596.105 181.8C581.695 179.788 558.477 220.013 558.477 220.013C528.374 258.421 497.333 382.834 497.333 382.834C497.333 382.834 549.079 386.072 586.906 406.197C624.733 426.323 669.374 405.179 669.374 405.179L655.355 332.74Z" fill="#25252F"/>
<path opacity="0.1" d="M655.355 332.74C655.355 332.74 610.515 183.813 596.105 181.8C581.695 179.788 564.374 220.421 564.374 220.421C549.374 282.421 497.333 382.834 497.333 382.834C497.333 382.834 549.079 386.072 586.906 406.197C624.733 426.323 669.374 405.179 669.374 405.179L655.355 332.74Z" fill="black"/>
<path d="M618.567 288.182V363.017L627.374 471.421L671.374 553.421L650.374 568.421L590.374 490.421L566.643 412.972L529.374 584.421L501.374 582.421L520.82 344.71L557.721 277.8L618.567 288.182Z" fill="#25252F"/>
<path d="M573.358 215.8C559.358 229.8 572.358 244.8 572.358 244.8L556.358 280.8L619.358 297.8L641.374 199.421L626.374 183.421C596.374 182.421 596.358 181.8 596.358 181.8C591.101 186.944 573.358 215.8 573.358 215.8Z" fill="#009688"/>
<path d="M643.911 189.23C641.05 187.117 637.798 185.594 634.343 184.748C630.889 183.901 627.301 183.749 623.788 184.298C620.274 184.848 616.904 186.09 613.874 187.952C610.844 189.813 608.213 192.257 606.134 195.143C590.296 217.195 575.651 252.804 595.829 297.214C628.228 368.524 656.422 405.029 667.884 405.025C668.384 405.029 668.882 404.951 669.357 404.794C676.412 402.4 686.613 390.462 688.46 379.941C689.121 376.175 688.964 370.93 684.46 367.329C671.525 356.982 648.302 324.767 641.058 282.365C637.055 258.935 644.819 237.593 652.036 223.815C655.085 218.114 655.977 211.505 654.548 205.2C653.12 198.895 649.467 193.316 644.259 189.486L643.911 189.23Z" fill="#25252F"/>
<path d="M623.959 164.963C636.801 157.943 641.521 141.842 634.501 129C627.481 116.158 611.379 111.438 598.537 118.458C585.695 125.478 580.975 141.58 587.995 154.422C595.016 167.264 611.117 171.983 623.959 164.963Z" fill="#FFB7B7"/>
<path d="M573.98 139.707H612.245L612.638 134.213L614.6 139.707H620.492L621.269 128.819L625.158 139.707H636.559V139.168C636.55 131.587 633.535 124.32 628.175 118.959C622.815 113.599 615.547 110.584 607.967 110.575H602.572C594.991 110.584 587.724 113.599 582.364 118.959C577.003 124.32 573.988 131.587 573.98 139.168V139.707Z" fill="#25252F"/>
<path d="M630.778 159.454L647.108 154.156V114.5H616.263L617.027 115.262C627.652 125.873 639.468 163.519 630.778 159.454Z" fill="#25252F"/>
</g>
<defs>
<clipPath id="clip0_173_3">
<rect width="816.215" height="621" fill="white" transform="translate(0 0.5)"/>
</clipPath>
</defs>
</svg>
